# xmcd
#
# Track frame offsets:
#	150
#	18826
#	34437
#	51089
#	69124
#	85683
#	104017
#	120554
#	137480
#	153245
#	167756
#	182577
#	202657
#	219637
#	234391
#	250114
#	264348
#	277938
#	291875
#	306899
#
# Disc length: 4342 seconds
#
# Revision: 1
# Processed by: cddbd v1.4PL0 Copyright (c) Steve Scherf et al.
# Submitted via: audiograbber 1.82.01
#
DISCID=0a10f414
DTITLE=Various Artist - Saloon Tunes 63
DYEAR=2003
DGENRE=Country
TTITLE0=Prichett, Aaron - You Can't Say I Didn't Love You
TTITLE1=Shelton, Blake - Heavy Liftin'
TTITLE2=Johner, Brad - Free
TTITLE3=Brooks and Dunn - Red Dirt Road
TTITLE4=Brock, Chad - A Woman Thing
TTITLE5=Tennison, Chalee - Easy Lovin' You
TTITLE6=Cummings, Chris - Pamela Anderson In My Bedroom
TTITLE7=Walker, Clay - A Few Questions
TTITLE8=Carter, Deana - I'm Just A Girl
TTITLE9=Steele, Duane - What To Do
TTITLE10=Strait, George - Tell Me Something Bad About Tulsa
TTITLE11=Grand, Gil - Break It To The Gently
TTITLE12=Wayne, Jimmy - Stay Gone
TTITLE13=Landry, John - Everybody Rides
TTITLE14=Chesney, Kenny - No Shirts, No Shoes, No Problems
TTITLE15=Rogers, Kenny - I'm Missing You
TTITLE16=McHayes - It Doesn't Mean I Don't Love You
TTITLE17=Proctor, Rachel - Days Like These
TTITLE18=Travis, Randy - Three Wooden Crosses
TTITLE19=McGraw, Tim - Real Good Man
EXTD=
EXTT0=
EXTT1=
EXTT2=
EXTT3=
EXTT4=
EXTT5=
EXTT6=
EXTT7=
EXTT8=
EXTT9=
EXTT10=
EXTT11=
EXTT12=
EXTT13=
EXTT14=
EXTT15=
EXTT16=
EXTT17=
EXTT18=
EXTT19=
PLAYORDER=
